<?xml version="1.0" encoding="UTF-8" standalone="no"?>
<svg
   xmlns:dc="http://purl.org/dc/elements/1.1/"
   xmlns:cc="http://creativecommons.org/ns#"
   xmlns:rdf="http://www.w3.org/1999/02/22-rdf-syntax-ns#"
   xmlns:svg="http://www.w3.org/2000/svg"
   xmlns="http://www.w3.org/2000/svg"
   xmlns:sodipodi="http://sodipodi.sourceforge.net/DTD/sodipodi-0.dtd"
   xmlns:inkscape="http://www.inkscape.org/namespaces/inkscape"
   xml:space="preserve"
   width="100%"
   height="100%"
   version="1.1"
   style="shape-rendering:geometricPrecision; text-rendering:geometricPrecision; image-rendering:optimizeQuality; fill-rule:evenodd; clip-rule:evenodd"
   viewBox="0 0 500 500"
   id="svg847"
   sodipodi:docname="scissor.svg"
   inkscape:version="1.0.2 (e86c8708, 2021-01-15)"><metadata
   id="metadata851"><rdf:RDF><cc:Work
       rdf:about=""><dc:format>image/svg+xml</dc:format><dc:type
         rdf:resource="http://purl.org/dc/dcmitype/StillImage" /><dc:title></dc:title></cc:Work></rdf:RDF></metadata><sodipodi:namedview
   pagecolor="#ffffff"
   bordercolor="#666666"
   borderopacity="1"
   objecttolerance="10"
   gridtolerance="10"
   guidetolerance="10"
   inkscape:pageopacity="0"
   inkscape:pageshadow="2"
   inkscape:window-width="2248"
   inkscape:window-height="1169"
   id="namedview849"
   showgrid="false"
   inkscape:pagecheckerboard="true"
   inkscape:zoom="1.47"
   inkscape:cx="250"
   inkscape:cy="262.2449"
   inkscape:window-x="243"
   inkscape:window-y="23"
   inkscape:window-maximized="0"
   inkscape:current-layer="svg847" />
 <defs
   id="defs835">
  <style
   type="text/css"
   id="style833">
   <![CDATA[
    .str0 {stroke:#303030;stroke-width:10;stroke-linejoin:round}
    .fil3 {fill:#434242}
    .fil2 {fill:#008EED}
    .fil0 {fill:#E5E5E5}
    .fil1 {fill:#F2F2F2}
   ]]>
  </style>
 </defs>
 <g
   id="Layer_x0020_1"
   transform="matrix(1.0025298,0,0,1.011555,1.4079773,0.25773496)"
   style="opacity:1">
  <metadata
   id="CorelCorpID_0Corel-Layer" />
  <path
   class="fil0 str0"
   d="M 182,302 470,130 c -17,-19 -53,-9 -121,11 -48,15 -124,52 -202,130 z"
   id="path838" />
  <path
   class="fil1 str0"
   d="M 182,198 470,370 C 453,389 417,379 349,359 301,344 225,307 147,229 Z"
   id="path840" />
  <path
   class="fil2 str0"
   d="m 163,188 19,10 -35,31 -1,-1 C 132,206 105,196 84,183 L 63,171 C 32,153 21,112 39,80 57,48 98,37 130,56 l 31,18 c 32,18 43,59 24,91 -5,10 -12,16 -22,23 z M 123,78 145,90 c 23,13 32,42 20,63 -13,21 -41,28 -64,14 L 79,155 C 56,141 47,113 60,92 72,71 100,64 123,78 Z m 40,234 19,-10 -35,-31 -1,1 c -14,22 -41,32 -62,45 l -21,12 c -31,18 -42,59 -24,91 18,32 59,43 91,24 l 31,-18 c 32,-18 43,-59 24,-91 -5,-10 -12,-16 -22,-23 z m -40,110 22,-12 c 23,-13 32,-42 20,-63 -13,-21 -41,-28 -64,-14 l -22,12 c -23,14 -32,42 -19,63 12,21 40,28 63,14 z"
   id="path842" />
  <circle
   class="fil3"
   transform="matrix(0,-1.20221,1.20221,0,209.931,249.998)"
   r="13"
   id="circle844"
   cx="0"
   cy="0" />
 </g>
</svg>
